<mxfile host="app.diagrams.net" modified="2022-01-14T09:15:46.360Z" agent="5.0 (Macintosh; Intel Mac OS X 10_15_7) AppleWebKit/605.1.15 (KHTML, like Gecko) Version/15.2 Safari/605.1.15" etag="DJUuukPd5B52CUWoZaTM" version="16.2.6" type="github">
  <diagram id="fHpPr2RdEvj4gNqwsy3j" name="Page-1">
    <mxGraphModel dx="922" dy="593" grid="0" gridSize="10" guides="1" tooltips="1" connect="1" arrows="1" fold="1" page="1" pageScale="1" pageWidth="827" pageHeight="1169" math="0" shadow="0">
      <root>
        <mxCell id="0" />
        <mxCell id="1" parent="0" />
        <mxCell id="5TZ1lEWXBGR0TFEkmN6e-29" style="edgeStyle=orthogonalEdgeStyle;rounded=0;orthogonalLoop=1;jettySize=auto;html=1;exitX=0.5;exitY=0.5;exitDx=0;exitDy=0;exitPerimeter=0;entryX=-0.006;entryY=0.402;entryDx=0;entryDy=0;entryPerimeter=0;" edge="1" parent="1" source="5TZ1lEWXBGR0TFEkmN6e-1" target="5TZ1lEWXBGR0TFEkmN6e-7">
          <mxGeometry relative="1" as="geometry" />
        </mxCell>
        <mxCell id="5TZ1lEWXBGR0TFEkmN6e-1" value="Actor" style="shape=umlActor;verticalLabelPosition=bottom;verticalAlign=top;html=1;" vertex="1" parent="1">
          <mxGeometry x="138" y="176" width="56" height="106" as="geometry" />
        </mxCell>
        <mxCell id="5TZ1lEWXBGR0TFEkmN6e-2" value="登陆" style="ellipse;whiteSpace=wrap;html=1;" vertex="1" parent="1">
          <mxGeometry x="207" y="410" width="140" height="70" as="geometry" />
        </mxCell>
        <mxCell id="5TZ1lEWXBGR0TFEkmN6e-3" value="注册" style="ellipse;whiteSpace=wrap;html=1;" vertex="1" parent="1">
          <mxGeometry x="63" y="410" width="140" height="70" as="geometry" />
        </mxCell>
        <mxCell id="5TZ1lEWXBGR0TFEkmN6e-4" value="账单分析" style="ellipse;whiteSpace=wrap;html=1;" vertex="1" parent="1">
          <mxGeometry x="513" y="408" width="140" height="70" as="geometry" />
        </mxCell>
        <mxCell id="5TZ1lEWXBGR0TFEkmN6e-5" value="上传账单" style="ellipse;whiteSpace=wrap;html=1;" vertex="1" parent="1">
          <mxGeometry x="358" y="410" width="140" height="70" as="geometry" />
        </mxCell>
        <mxCell id="5TZ1lEWXBGR0TFEkmN6e-6" value="微信账单分析" style="ellipse;whiteSpace=wrap;html=1;fillColor=default;gradientColor=none;" vertex="1" parent="1">
          <mxGeometry x="673" y="585" width="140" height="70" as="geometry" />
        </mxCell>
        <mxCell id="5TZ1lEWXBGR0TFEkmN6e-7" value="系统操作" style="ellipse;whiteSpace=wrap;html=1;" vertex="1" parent="1">
          <mxGeometry x="400" y="200" width="140" height="70" as="geometry" />
        </mxCell>
        <mxCell id="5TZ1lEWXBGR0TFEkmN6e-8" value="支付宝账单分析" style="ellipse;whiteSpace=wrap;html=1;" vertex="1" parent="1">
          <mxGeometry x="353" y="585" width="140" height="70" as="geometry" />
        </mxCell>
        <mxCell id="5TZ1lEWXBGR0TFEkmN6e-9" value="支付宝微信账单合并分析" style="ellipse;whiteSpace=wrap;html=1;" vertex="1" parent="1">
          <mxGeometry x="513" y="585" width="140" height="70" as="geometry" />
        </mxCell>
        <mxCell id="5TZ1lEWXBGR0TFEkmN6e-16" value="Extends" style="endArrow=block;endSize=16;endFill=0;html=1;rounded=0;exitX=0.5;exitY=0;exitDx=0;exitDy=0;entryX=0.5;entryY=1;entryDx=0;entryDy=0;" edge="1" parent="1" source="5TZ1lEWXBGR0TFEkmN6e-8" target="5TZ1lEWXBGR0TFEkmN6e-4">
          <mxGeometry width="160" relative="1" as="geometry">
            <mxPoint x="382" y="528" as="sourcePoint" />
            <mxPoint x="542" y="528" as="targetPoint" />
          </mxGeometry>
        </mxCell>
        <mxCell id="5TZ1lEWXBGR0TFEkmN6e-17" value="Extends" style="endArrow=block;endSize=16;endFill=0;html=1;rounded=0;exitX=0.5;exitY=0;exitDx=0;exitDy=0;entryX=0.5;entryY=1;entryDx=0;entryDy=0;" edge="1" parent="1" source="5TZ1lEWXBGR0TFEkmN6e-6" target="5TZ1lEWXBGR0TFEkmN6e-4">
          <mxGeometry width="160" relative="1" as="geometry">
            <mxPoint x="632" y="612" as="sourcePoint" />
            <mxPoint x="656" y="479" as="targetPoint" />
          </mxGeometry>
        </mxCell>
        <mxCell id="5TZ1lEWXBGR0TFEkmN6e-18" value="Extends" style="endArrow=block;endSize=16;endFill=0;html=1;rounded=0;" edge="1" parent="1" source="5TZ1lEWXBGR0TFEkmN6e-9" target="5TZ1lEWXBGR0TFEkmN6e-4">
          <mxGeometry width="160" relative="1" as="geometry">
            <mxPoint x="444" y="673.5" as="sourcePoint" />
            <mxPoint x="580" y="483" as="targetPoint" />
          </mxGeometry>
        </mxCell>
        <mxCell id="5TZ1lEWXBGR0TFEkmN6e-19" value="包括" style="endArrow=open;endSize=12;dashed=1;html=1;rounded=0;exitX=0.5;exitY=1;exitDx=0;exitDy=0;entryX=0.5;entryY=0;entryDx=0;entryDy=0;" edge="1" parent="1" source="5TZ1lEWXBGR0TFEkmN6e-7" target="5TZ1lEWXBGR0TFEkmN6e-2">
          <mxGeometry width="160" relative="1" as="geometry">
            <mxPoint x="345" y="334.44000000000005" as="sourcePoint" />
            <mxPoint x="547" y="334" as="targetPoint" />
          </mxGeometry>
        </mxCell>
        <mxCell id="5TZ1lEWXBGR0TFEkmN6e-20" value="包括" style="endArrow=open;endSize=12;dashed=1;html=1;rounded=0;exitX=0.5;exitY=1;exitDx=0;exitDy=0;" edge="1" parent="1" source="5TZ1lEWXBGR0TFEkmN6e-7" target="5TZ1lEWXBGR0TFEkmN6e-5">
          <mxGeometry width="160" relative="1" as="geometry">
            <mxPoint x="625" y="352.44000000000005" as="sourcePoint" />
            <mxPoint x="500" y="394" as="targetPoint" />
          </mxGeometry>
        </mxCell>
        <mxCell id="5TZ1lEWXBGR0TFEkmN6e-21" value="包括" style="endArrow=open;endSize=12;dashed=1;html=1;rounded=0;exitX=0.5;exitY=1;exitDx=0;exitDy=0;entryX=0.5;entryY=0;entryDx=0;entryDy=0;" edge="1" parent="1" source="5TZ1lEWXBGR0TFEkmN6e-7" target="5TZ1lEWXBGR0TFEkmN6e-4">
          <mxGeometry width="160" relative="1" as="geometry">
            <mxPoint x="580" y="194.44000000000005" as="sourcePoint" />
            <mxPoint x="782" y="194" as="targetPoint" />
          </mxGeometry>
        </mxCell>
        <mxCell id="5TZ1lEWXBGR0TFEkmN6e-22" value="包括" style="endArrow=open;endSize=12;dashed=1;html=1;rounded=0;exitX=0.5;exitY=1;exitDx=0;exitDy=0;entryX=0.5;entryY=0;entryDx=0;entryDy=0;" edge="1" parent="1" source="5TZ1lEWXBGR0TFEkmN6e-7" target="5TZ1lEWXBGR0TFEkmN6e-3">
          <mxGeometry width="160" relative="1" as="geometry">
            <mxPoint x="385" y="292.44000000000005" as="sourcePoint" />
            <mxPoint x="587" y="292" as="targetPoint" />
          </mxGeometry>
        </mxCell>
        <mxCell id="5TZ1lEWXBGR0TFEkmN6e-30" value="" style="shape=umlLifeline;participant=umlEntity;perimeter=lifelinePerimeter;whiteSpace=wrap;html=1;container=1;collapsible=0;recursiveResize=0;verticalAlign=top;spacingTop=36;outlineConnect=0;fillColor=default;gradientColor=none;" vertex="1" parent="1">
          <mxGeometry x="38" y="1197" width="40" height="721" as="geometry" />
        </mxCell>
        <mxCell id="5TZ1lEWXBGR0TFEkmN6e-32" value="" style="shape=umlLifeline;participant=umlEntity;perimeter=lifelinePerimeter;whiteSpace=wrap;html=1;container=1;collapsible=0;recursiveResize=0;verticalAlign=top;spacingTop=36;outlineConnect=0;fillColor=default;gradientColor=none;" vertex="1" parent="1">
          <mxGeometry x="246" y="1197" width="40" height="716" as="geometry" />
        </mxCell>
        <mxCell id="5TZ1lEWXBGR0TFEkmN6e-34" value="" style="html=1;points=[];perimeter=orthogonalPerimeter;fillColor=default;gradientColor=none;" vertex="1" parent="5TZ1lEWXBGR0TFEkmN6e-32">
          <mxGeometry x="15" y="81" width="10" height="36" as="geometry" />
        </mxCell>
        <mxCell id="5TZ1lEWXBGR0TFEkmN6e-45" value="" style="html=1;points=[];perimeter=orthogonalPerimeter;fillColor=default;gradientColor=none;" vertex="1" parent="5TZ1lEWXBGR0TFEkmN6e-32">
          <mxGeometry x="15" y="230" width="10" height="36" as="geometry" />
        </mxCell>
        <mxCell id="5TZ1lEWXBGR0TFEkmN6e-51" value="" style="html=1;points=[];perimeter=orthogonalPerimeter;fillColor=default;gradientColor=none;" vertex="1" parent="5TZ1lEWXBGR0TFEkmN6e-32">
          <mxGeometry x="15" y="157" width="10" height="27" as="geometry" />
        </mxCell>
        <mxCell id="5TZ1lEWXBGR0TFEkmN6e-52" value="" style="html=1;points=[];perimeter=orthogonalPerimeter;fillColor=default;gradientColor=none;" vertex="1" parent="5TZ1lEWXBGR0TFEkmN6e-32">
          <mxGeometry x="15" y="307" width="10" height="27" as="geometry" />
        </mxCell>
        <mxCell id="5TZ1lEWXBGR0TFEkmN6e-55" value="" style="html=1;points=[];perimeter=orthogonalPerimeter;fillColor=default;gradientColor=none;" vertex="1" parent="5TZ1lEWXBGR0TFEkmN6e-32">
          <mxGeometry x="15" y="398" width="10" height="36" as="geometry" />
        </mxCell>
        <mxCell id="5TZ1lEWXBGR0TFEkmN6e-56" value="上传账单文件" style="html=1;verticalAlign=bottom;startArrow=oval;endArrow=block;startSize=8;rounded=0;entryX=0.033;entryY=0.001;entryDx=0;entryDy=0;entryPerimeter=0;" edge="1" parent="5TZ1lEWXBGR0TFEkmN6e-32" target="5TZ1lEWXBGR0TFEkmN6e-55">
          <mxGeometry relative="1" as="geometry">
            <mxPoint x="-187" y="398" as="sourcePoint" />
            <mxPoint x="-18" y="398" as="targetPoint" />
          </mxGeometry>
        </mxCell>
        <mxCell id="5TZ1lEWXBGR0TFEkmN6e-62" value="" style="html=1;points=[];perimeter=orthogonalPerimeter;fillColor=default;gradientColor=none;" vertex="1" parent="5TZ1lEWXBGR0TFEkmN6e-32">
          <mxGeometry x="16.75" y="568" width="10" height="36" as="geometry" />
        </mxCell>
        <mxCell id="5TZ1lEWXBGR0TFEkmN6e-63" value="账单分析" style="html=1;verticalAlign=bottom;startArrow=oval;endArrow=block;startSize=8;rounded=0;entryX=0.033;entryY=0.001;entryDx=0;entryDy=0;entryPerimeter=0;" edge="1" parent="5TZ1lEWXBGR0TFEkmN6e-32" target="5TZ1lEWXBGR0TFEkmN6e-62">
          <mxGeometry relative="1" as="geometry">
            <mxPoint x="-185.25" y="568" as="sourcePoint" />
            <mxPoint x="-16.25" y="568" as="targetPoint" />
          </mxGeometry>
        </mxCell>
        <mxCell id="5TZ1lEWXBGR0TFEkmN6e-64" value="账单分析" style="html=1;verticalAlign=bottom;endArrow=block;rounded=0;" edge="1" parent="5TZ1lEWXBGR0TFEkmN6e-32">
          <mxGeometry relative="1" as="geometry">
            <mxPoint x="22.750000000000227" y="604" as="sourcePoint" />
            <mxPoint x="225.24999999999977" y="604" as="targetPoint" />
          </mxGeometry>
        </mxCell>
        <mxCell id="5TZ1lEWXBGR0TFEkmN6e-67" value="" style="html=1;points=[];perimeter=orthogonalPerimeter;fillColor=default;gradientColor=none;" vertex="1" parent="5TZ1lEWXBGR0TFEkmN6e-32">
          <mxGeometry x="15" y="641" width="10" height="27" as="geometry" />
        </mxCell>
        <mxCell id="5TZ1lEWXBGR0TFEkmN6e-68" value="账单分析结果" style="html=1;verticalAlign=bottom;endArrow=open;dashed=1;endSize=8;rounded=0;" edge="1" parent="5TZ1lEWXBGR0TFEkmN6e-32">
          <mxGeometry relative="1" as="geometry">
            <mxPoint x="16.000000000000114" y="667" as="sourcePoint" />
            <mxPoint x="-188.6111111111111" y="667" as="targetPoint" />
          </mxGeometry>
        </mxCell>
        <mxCell id="5TZ1lEWXBGR0TFEkmN6e-33" value="" style="shape=umlLifeline;participant=umlEntity;perimeter=lifelinePerimeter;whiteSpace=wrap;html=1;container=1;collapsible=0;recursiveResize=0;verticalAlign=top;spacingTop=36;outlineConnect=0;fillColor=default;gradientColor=none;" vertex="1" parent="1">
          <mxGeometry x="450" y="1197" width="40" height="720" as="geometry" />
        </mxCell>
        <mxCell id="5TZ1lEWXBGR0TFEkmN6e-40" value="" style="html=1;points=[];perimeter=orthogonalPerimeter;fillColor=default;gradientColor=none;" vertex="1" parent="5TZ1lEWXBGR0TFEkmN6e-33">
          <mxGeometry x="15" y="117" width="10" height="36" as="geometry" />
        </mxCell>
        <mxCell id="5TZ1lEWXBGR0TFEkmN6e-65" value="" style="html=1;points=[];perimeter=orthogonalPerimeter;fillColor=default;gradientColor=none;" vertex="1" parent="5TZ1lEWXBGR0TFEkmN6e-33">
          <mxGeometry x="15" y="604" width="10" height="36" as="geometry" />
        </mxCell>
        <mxCell id="5TZ1lEWXBGR0TFEkmN6e-66" value="账单分析结果" style="html=1;verticalAlign=bottom;endArrow=open;dashed=1;endSize=8;rounded=0;" edge="1" parent="5TZ1lEWXBGR0TFEkmN6e-33">
          <mxGeometry relative="1" as="geometry">
            <mxPoint x="-184.6111111111111" y="641" as="targetPoint" />
            <mxPoint x="19.499999999999773" y="641" as="sourcePoint" />
            <Array as="points">
              <mxPoint x="-42" y="641" />
            </Array>
          </mxGeometry>
        </mxCell>
        <mxCell id="5TZ1lEWXBGR0TFEkmN6e-35" value="注册" style="html=1;verticalAlign=bottom;startArrow=oval;endArrow=block;startSize=8;rounded=0;entryX=0.033;entryY=0.001;entryDx=0;entryDy=0;entryPerimeter=0;" edge="1" target="5TZ1lEWXBGR0TFEkmN6e-34" parent="1">
          <mxGeometry relative="1" as="geometry">
            <mxPoint x="59" y="1278" as="sourcePoint" />
            <mxPoint x="228" y="1278" as="targetPoint" />
          </mxGeometry>
        </mxCell>
        <mxCell id="5TZ1lEWXBGR0TFEkmN6e-41" value="检查注册用户合法性" style="html=1;verticalAlign=bottom;endArrow=block;rounded=0;" edge="1" target="5TZ1lEWXBGR0TFEkmN6e-33" parent="1">
          <mxGeometry relative="1" as="geometry">
            <mxPoint x="267" y="1314" as="sourcePoint" />
          </mxGeometry>
        </mxCell>
        <mxCell id="5TZ1lEWXBGR0TFEkmN6e-42" value="注册成功" style="html=1;verticalAlign=bottom;endArrow=open;dashed=1;endSize=8;rounded=0;" edge="1" source="5TZ1lEWXBGR0TFEkmN6e-33" parent="1" target="5TZ1lEWXBGR0TFEkmN6e-32">
          <mxGeometry relative="1" as="geometry">
            <mxPoint x="267" y="1390" as="targetPoint" />
            <Array as="points">
              <mxPoint x="408" y="1351" />
            </Array>
          </mxGeometry>
        </mxCell>
        <mxCell id="5TZ1lEWXBGR0TFEkmN6e-43" value="注册成功" style="html=1;verticalAlign=bottom;endArrow=open;dashed=1;endSize=8;rounded=0;" edge="1" parent="1" target="5TZ1lEWXBGR0TFEkmN6e-30">
          <mxGeometry relative="1" as="geometry">
            <mxPoint x="262" y="1380" as="sourcePoint" />
            <mxPoint x="182" y="1380" as="targetPoint" />
          </mxGeometry>
        </mxCell>
        <mxCell id="5TZ1lEWXBGR0TFEkmN6e-44" value="登陆" style="html=1;verticalAlign=bottom;startArrow=oval;endArrow=block;startSize=8;rounded=0;entryX=0.033;entryY=0.001;entryDx=0;entryDy=0;entryPerimeter=0;" edge="1" parent="1">
          <mxGeometry relative="1" as="geometry">
            <mxPoint x="60" y="1426" as="sourcePoint" />
            <mxPoint x="262.33000000000015" y="1426.036" as="targetPoint" />
          </mxGeometry>
        </mxCell>
        <mxCell id="5TZ1lEWXBGR0TFEkmN6e-47" value="" style="html=1;points=[];perimeter=orthogonalPerimeter;fillColor=default;gradientColor=none;" vertex="1" parent="1">
          <mxGeometry x="463.61" y="1465" width="10" height="36" as="geometry" />
        </mxCell>
        <mxCell id="5TZ1lEWXBGR0TFEkmN6e-48" value="检查登陆用户合法性" style="html=1;verticalAlign=bottom;endArrow=block;rounded=0;" edge="1" parent="1">
          <mxGeometry relative="1" as="geometry">
            <mxPoint x="265.61000000000024" y="1465" as="sourcePoint" />
            <mxPoint x="468.1099999999998" y="1465" as="targetPoint" />
          </mxGeometry>
        </mxCell>
        <mxCell id="5TZ1lEWXBGR0TFEkmN6e-49" value="登陆成功，返回token" style="html=1;verticalAlign=bottom;endArrow=open;dashed=1;endSize=8;rounded=0;" edge="1" parent="1">
          <mxGeometry relative="1" as="geometry">
            <mxPoint x="263.9988888888889" y="1502" as="targetPoint" />
            <mxPoint x="468.1099999999998" y="1502" as="sourcePoint" />
            <Array as="points">
              <mxPoint x="406.61" y="1502" />
            </Array>
          </mxGeometry>
        </mxCell>
        <mxCell id="5TZ1lEWXBGR0TFEkmN6e-50" value="登陆成功，返回token" style="html=1;verticalAlign=bottom;endArrow=open;dashed=1;endSize=8;rounded=0;" edge="1" parent="1">
          <mxGeometry relative="1" as="geometry">
            <mxPoint x="262.61000000000024" y="1530" as="sourcePoint" />
            <mxPoint x="57.998888888888914" y="1530" as="targetPoint" />
          </mxGeometry>
        </mxCell>
        <mxCell id="5TZ1lEWXBGR0TFEkmN6e-57" value="" style="html=1;points=[];perimeter=orthogonalPerimeter;fillColor=default;gradientColor=none;" vertex="1" parent="1">
          <mxGeometry x="463.61" y="1632" width="10" height="36" as="geometry" />
        </mxCell>
        <mxCell id="5TZ1lEWXBGR0TFEkmN6e-58" value="保存用户的账单文件" style="html=1;verticalAlign=bottom;endArrow=block;rounded=0;" edge="1" parent="1">
          <mxGeometry relative="1" as="geometry">
            <mxPoint x="265.61000000000024" y="1632" as="sourcePoint" />
            <mxPoint x="468.1099999999998" y="1632" as="targetPoint" />
          </mxGeometry>
        </mxCell>
        <mxCell id="5TZ1lEWXBGR0TFEkmN6e-59" value="上传成功" style="html=1;verticalAlign=bottom;endArrow=open;dashed=1;endSize=8;rounded=0;" edge="1" parent="1">
          <mxGeometry relative="1" as="geometry">
            <mxPoint x="263.9988888888889" y="1669" as="targetPoint" />
            <mxPoint x="468.1099999999998" y="1669" as="sourcePoint" />
            <Array as="points">
              <mxPoint x="406.61" y="1669" />
            </Array>
          </mxGeometry>
        </mxCell>
        <mxCell id="5TZ1lEWXBGR0TFEkmN6e-60" value="" style="html=1;points=[];perimeter=orthogonalPerimeter;fillColor=default;gradientColor=none;" vertex="1" parent="1">
          <mxGeometry x="258.61" y="1668" width="10" height="27" as="geometry" />
        </mxCell>
        <mxCell id="5TZ1lEWXBGR0TFEkmN6e-61" value="上传成功" style="html=1;verticalAlign=bottom;endArrow=open;dashed=1;endSize=8;rounded=0;" edge="1" parent="1">
          <mxGeometry relative="1" as="geometry">
            <mxPoint x="259.61000000000024" y="1694" as="sourcePoint" />
            <mxPoint x="54.998888888888914" y="1694" as="targetPoint" />
          </mxGeometry>
        </mxCell>
        <mxCell id="5TZ1lEWXBGR0TFEkmN6e-69" value="用户" style="text;align=center;fontStyle=1;verticalAlign=middle;spacingLeft=3;spacingRight=3;strokeColor=none;rotatable=0;points=[[0,0.5],[1,0.5]];portConstraint=eastwest;fillColor=none;gradientColor=none;" vertex="1" parent="1">
          <mxGeometry x="18" y="1171" width="80" height="26" as="geometry" />
        </mxCell>
        <mxCell id="5TZ1lEWXBGR0TFEkmN6e-70" value="前端界面" style="text;align=center;fontStyle=1;verticalAlign=middle;spacingLeft=3;spacingRight=3;strokeColor=none;rotatable=0;points=[[0,0.5],[1,0.5]];portConstraint=eastwest;fillColor=none;gradientColor=none;" vertex="1" parent="1">
          <mxGeometry x="226" y="1171" width="80" height="26" as="geometry" />
        </mxCell>
        <mxCell id="5TZ1lEWXBGR0TFEkmN6e-71" value="服务器" style="text;align=center;fontStyle=1;verticalAlign=middle;spacingLeft=3;spacingRight=3;strokeColor=none;rotatable=0;points=[[0,0.5],[1,0.5]];portConstraint=eastwest;fillColor=none;gradientColor=none;" vertex="1" parent="1">
          <mxGeometry x="430" y="1171" width="80" height="26" as="geometry" />
        </mxCell>
      </root>
    </mxGraphModel>
  </diagram>
</mxfile>
